<svg xmlns="http://www.w3.org/2000/svg" viewBox="0 0 201 276" width="201" height="276"><defs><linearGradient id="2415559952334938512" x1="80.88405369762887" x2="313.33779062864056" y1="266.9173772021753" y2="1.7583489934267078" gradientTransform="matrix(0.006293569,0,0,0.00407739,-0.432713718,-0.160043253)"><stop stop-color="#000000" /><stop offset="0.23846" stop-color="#c6c6c6" /><stop offset="0.473219" stop-color="#313131" /><stop offset="0.521069" stop-color="#484848" /><stop offset="1" stop-color="#ffffff" /></linearGradient></defs><g transform="matrix(1,0,0,1,-61.979196771,-11.365419677)">
<g>
	<g>
		<path d="M6.185644,-68.603314C6.251154,-68.548939 8.26212,-66.879795 9.836351,-65.573151 C10.833364,-64.745609 11.655197,-64.06347 11.696687,-64.029032 L 13.093115,-62.869968 L 14.381989,-64.144532 C14.382104,-64.144646 14.385412,-64.147918 14.388264,-64.150738 C14.3902,-64.152652 14.391925,-64.154358 14.3923,-64.154729 L 11.710291,-64.036639 C11.731157,-64.01932 11.958577,-63.830556 12.308244,-63.540325 C13.671945,-62.408426 16.895013,-59.733214 16.976391,-59.665668 L 16.945326,-59.692048 C16.950085,-59.687919 16.980753,-59.661312 17.031513,-59.617274 C17.174566,-59.493165 17.477197,-59.23061 17.809225,-58.942552 C18.409016,-58.422188 19.104736,-57.8186 19.128962,-57.797582 L 20.407485,-56.688369 L 21.719541,-57.770345 C22.165363,-58.137988 44.235777,-76.338184 44.681598,-76.705827 L 68.35866,-96.230932 L 42.348664,-79.945889 C42.324762,-79.930924 42.229875,-79.871514 42.072696,-79.773103 C42.046499,-79.756701 42.018572,-79.739216 41.988955,-79.720673 C40.77466,-78.960394 36.719308,-76.421309 32.596313,-73.839873 C28.573878,-71.321398 24.487059,-68.762611 22.911243,-67.775982 C22.517289,-67.529324 22.280273,-67.380927 22.240435,-67.355984 L 24.70318,-64.235882 C25.499769,-65.006414 54.289625,-92.854546 70.511076,-108.545388 C73.938143,-111.860355 76.804232,-114.632693 78.726858,-116.492429 C80.264958,-117.980217 81.199242,-118.88394 81.333877,-119.014171 L 116.24149,-152.779945 L 78.672787,-121.998749 C78.222597,-121.629895 70.196486,-115.053854 59.851214,-106.577654 C51.635852,-99.846555 41.957974,-91.917171 33.450109,-84.946415 C21.791182,-75.393896 12.329438,-67.641598 11.839526,-67.240198 L 14.509937,-64.27106 C14.959477,-64.715609 24.531516,-74.181371 35.592942,-85.119985 C35.862733,-85.38678 36.133409,-85.654452 36.404862,-85.92289 C36.676314,-86.191329 34.492514,-84.031775 37.221433,-86.730396 C39.950352,-89.429016 42.745722,-92.19335 45.496792,-94.913875 C53.199787,-102.531345 60.555464,-109.805354 65.132606,-114.331677 C69.709748,-118.858 63.111943,-112.333449 65.612271,-114.806017 C68.112599,-117.278584 69.677298,-118.82591 69.852728,-118.999393 L 101.334545,-150.131674 L 67.172472,-121.965955 C67.087924,-121.896248 66.710446,-121.585027 66.081886,-121.066796 C62.130936,-117.809343 48.259666,-106.372851 34.860792,-95.325836 C33.947233,-94.572631 33.035869,-93.821236 32.129996,-93.074367 C18.843853,-82.120296 6.738701,-72.139921 6.207255,-71.701758 L 8.899963,-68.75407 C9.864358,-69.731665 57.606742,-118.12755 58.571136,-119.105145 L 86.741305,-147.660909 L 55.868764,-122.050375 C55.68291,-121.896198 53.933253,-120.444758 51.162337,-118.146125 C37.959739,-107.193816 1.572089,-77.008184 0.686548,-76.273578 L -1.184953,-74.72106 L 0.671315,-73.18032 C0.746652,-73.117789 3.394854,-70.919727 4.992906,-69.593311 C5.664552,-69.035832 6.150695,-68.632323 6.182358,-68.606042 L 6.185644,-68.603314 ZM3.395133,-73.341009C3.606185,-73.558365 6.324274,-76.357643 10.321465,-80.474229 C13.152808,-83.390144 16.625922,-86.967 20.304404,-90.755357 C22.684597,-93.206647 25.150775,-95.746489 27.584709,-98.253124 C37.762977,-108.735415 47.377375,-118.636994 47.78189,-119.053592 L 72.95502,-144.97864 L 45.073117,-121.991371 C44.391006,-121.429004 20.413796,-101.660964 5.94479,-89.731975 C-0.136386,-84.718342 -4.538,-81.089426 -4.824684,-80.853069 L -6.705014,-79.302828 L -4.843015,-77.75733 C-4.736015,-77.668518 0.561028,-73.27186 0.668028,-73.183048 L 2.093167,-72.000153 L 3.395133,-73.341009 ZM42.357475,-74.164968C42.267736,-74.109538 41.378507,-73.560277 39.983478,-72.698592 C38.588448,-71.836907 39.907487,-72.651654 39.74634,-72.552116 C39.585193,-72.452578 39.418003,-72.349308 39.245173,-72.242554 C32.591212,-68.132521 17.577148,-58.858599 17.193266,-58.621482 L 14.871344,-57.187272 L 16.927058,-55.403789 C16.968175,-55.368116 18.393155,-54.131841 19.281536,-53.361105 C19.608146,-53.077747 19.862227,-52.857312 19.948346,-52.782598 C19.96557,-52.767655 19.976075,-52.758541 19.979098,-52.755918 L 21.25637,-51.64779 L 22.567883,-52.726752 C22.594168,-52.748377 22.698511,-52.834218 22.871354,-52.976414 C23.620342,-53.592595 25.655609,-55.266979 28.199405,-57.359723 C32.112938,-60.579329 37.23009,-64.789135 40.718816,-67.659259 C42.812052,-69.381333 44.319054,-70.621122 44.628101,-70.87537 C44.653855,-70.896558 44.67129,-70.910901 44.680052,-70.918109 L 67.516167,-89.705046 L 42.357475,-74.164968 ZM42.357475,-68.529691C41.868897,-68.227906 17.681843,-53.287987 17.193266,-52.986202 L 14.871345,-51.551992 L 16.927058,-49.768509 C16.968175,-49.732836 18.393155,-48.496561 19.281536,-47.725825 C19.673468,-47.385795 19.960959,-47.136376 19.979098,-47.120638 L 21.256371,-46.01251 L 22.567883,-47.091472 C22.913968,-47.376191 36.792318,-58.793709 42.385608,-63.395227 C42.598011,-63.569968 42.798467,-63.734881 42.98578,-63.88898 C43.984785,-64.710847 44.609959,-65.225168 44.680052,-65.282833 L 67.516167,-84.069773 L 42.357475,-68.529691 ZM42.357475,-62.830162C41.868897,-62.528377 17.681843,-47.588462 17.193266,-47.286676 L 14.871344,-45.852467 L 16.927058,-44.068983 C16.936128,-44.061114 17.012536,-43.994825 17.135667,-43.887999 C17.472227,-43.596009 18.157868,-43.001165 18.771639,-42.468673 C19.40038,-41.923194 19.953703,-41.443145 19.979098,-41.421112 L 21.25637,-40.312985 L 22.567883,-41.391947 C22.997203,-41.745142 44.250731,-59.230108 44.680052,-59.583303 L 67.516167,-78.370241 L 42.357475,-62.830162 ZM42.357475,-57.043705C42.133128,-56.90513 36.911966,-53.68011 31.2829,-50.203136 C26.154196,-47.035227 20.686882,-43.658164 18.351711,-42.21577 C17.668247,-41.793606 17.253092,-41.537172 17.193266,-41.500219 L 14.871345,-40.066009 L 16.927058,-38.282526 C16.976641,-38.239509 19.03857,-36.450633 19.745246,-35.837539 C19.840044,-35.755295 19.910454,-35.694209 19.948346,-35.661335 C19.96557,-35.646392 19.976075,-35.637278 19.979098,-35.634655 L 21.25637,-34.526527 L 22.567883,-35.605489 C22.997203,-35.958685 44.250731,-53.443651 44.680052,-53.796846 L 67.516167,-72.583783 L 42.357475,-57.043705 ZM42.357475,-51.408432C41.978578,-51.174394 27.347036,-42.13675 20.568993,-37.950073 C19.052852,-37.013579 17.929657,-36.319802 17.446821,-36.021562 C17.333212,-35.951388 17.255056,-35.903112 17.215575,-35.878726 C17.205704,-35.872629 17.198251,-35.868025 17.193266,-35.864946 L 14.871344,-34.430736 L 16.927058,-32.647253 C16.937337,-32.638335 17.034108,-32.554379 17.187363,-32.421419 C17.223423,-32.390134 17.26261,-32.356137 17.304534,-32.319765 C17.315014,-32.310672 17.325666,-32.301431 17.336483,-32.292047 C17.3473,-32.282662 17.358281,-32.273135 17.369422,-32.26347 C17.714777,-31.963849 18.212739,-31.531829 18.681354,-31.125271 C19.346485,-30.548221 19.952493,-30.022464 19.979098,-29.999382 L 21.25637,-28.891255 L 22.567883,-29.970217 C22.773781,-30.139606 27.769421,-34.249446 32.960561,-38.52012 C38.593499,-43.154256 44.45663,-47.977767 44.680052,-48.161573 L 67.516167,-66.94851 L 42.357475,-51.408432 ZM42.357475,-45.621975C42.158055,-45.498797 38.010535,-42.936947 33.137853,-39.927178 C28.508805,-37.067897 23.225299,-33.804369 20.050603,-31.843415 C18.37971,-30.811335 17.292976,-30.140078 17.193266,-30.078489 L 14.871345,-28.644279 L 16.927058,-26.860796 C16.951849,-26.839287 17.479727,-26.381314 18.089742,-25.852081 C18.937811,-25.116318 19.944633,-24.242827 19.979098,-24.212925 L 21.25637,-23.104797 L 22.567883,-24.183759 C22.708069,-24.299088 25.068579,-26.241045 28.199405,-28.81673 C29.471304,-29.863102 30.870334,-31.014064 32.299278,-32.189635 C38.124973,-36.982349 44.447868,-42.184102 44.680052,-42.375116 L 67.516167,-61.162053 L 42.357475,-45.621975 ZM42.357475,-40.081189C42.232838,-40.004202 40.565974,-38.97461 38.143733,-37.478435 C32.911693,-34.246697 24.155369,-28.838071 19.804401,-26.150554 C15.453432,-23.463038 20.032273,-26.291307 19.567263,-26.004079 C19.102253,-25.71685 18.693444,-25.464336 18.351711,-25.253254 C17.668247,-24.83109 17.253092,-24.574656 17.193266,-24.537703 L 14.871344,-23.103493 L 16.927058,-21.320009 C16.937337,-21.311091 17.034108,-21.227136 17.187363,-21.094176 C17.917578,-20.46066 19.930121,-18.714631 19.979098,-18.672139 L 21.25637,-17.564011 L 22.567883,-18.642973 C22.594168,-18.664597 22.699331,-18.749448 22.871354,-18.892635 C25.764712,-21.30097 67.498927,-55.391411 67.498927,-55.391411 L 45.416007,-41.97039 L 42.357475,-40.081189 ZM42.357475,-34.294731C42.267736,-34.239301 41.378507,-33.69004 39.983478,-32.828355 C33.783348,-28.998645 17.592105,-18.997601 17.193266,-18.751245 L 14.871345,-17.317036 L 16.927058,-15.533552 C16.958501,-15.506273 17.799192,-14.776912 18.590337,-14.090535 C18.712052,-13.984938 18.832594,-13.880359 18.948836,-13.77951 C19.500986,-13.300479 19.956121,-12.905616 19.979098,-12.885682 L 21.25637,-11.777554 L 22.567883,-12.856516 C22.997203,-13.209711 44.250731,-30.694677 44.680052,-31.047873 L 67.516167,-49.83481 L 42.357475,-34.294731 ZM42.357475,-28.659451C41.868897,-28.357666 17.681843,-13.417751 17.193266,-13.115965 L 14.871345,-11.681756 L 16.927058,-9.898272 C16.946407,-9.881485 17.272218,-9.598821 17.704351,-9.223913 C17.879905,-9.071607 18.073007,-8.904077 18.270237,-8.732965 C19.074331,-8.035354 19.947051,-7.278205 19.979098,-7.250401 L 21.25637,-6.142274 L 22.567883,-7.221236 C22.725592,-7.350981 25.693399,-9.792552 29.406742,-12.847465 C32.501194,-15.393225 36.113379,-18.364917 39.048529,-20.779622 C42.179355,-23.355306 44.539865,-25.297263 44.680052,-25.412592 L 67.516167,-44.19953 L 42.357475,-28.659451 ZM42.357475,-23.001499C41.928723,-22.736667 23.249874,-11.199073 18.351711,-8.173564 C17.668247,-7.7514 17.253092,-7.494967 17.193266,-7.458013 L 14.871345,-6.023804 L 16.927058,-4.24032 C16.986315,-4.18891 19.919841,-1.643859 19.979098,-1.59245 L 21.25637,-0.484322 L 22.567883,-1.563284 C22.668642,-1.646177 23.916423,-2.672708 25.772829,-4.199946 C27.548522,-5.660782 29.881065,-7.579732 32.299278,-9.56916 C33.398466,-10.473445 34.515354,-11.392293 35.605691,-12.289297 C36.259894,-12.8275 36.904538,-13.35784 37.530066,-13.872452 C41.387489,-17.045898 44.517961,-19.621291 44.680052,-19.754641 L 67.516167,-38.541578 L 42.357475,-23.001499 ZM42.357475,-17.215042C42.332548,-17.199645 42.245931,-17.146143 42.10392,-17.058426 C39.46252,-15.42688 17.656916,-1.957952 17.193266,-1.671563 L 14.871344,-0.237354 L 16.927058,1.54613 C16.928267,1.547179 16.930674,1.549267 16.934228,1.552351 C17.003545,1.612488 17.509484,2.051428 18.089742,2.554844 C18.179013,2.632293 18.270042,2.711268 18.361511,2.790624 C19.139,3.465153 19.948261,4.167246 19.979098,4.194001 L 21.25637,5.302128 L 22.567883,4.223167 C22.909587,3.942052 36.443135,-7.191796 42.169266,-11.902598 C43.637504,-13.110495 44.592435,-13.896102 44.680051,-13.968183 L 67.516168,-32.755114 L 42.357475,-17.215042 ZM42.357475,-11.579769C41.868897,-11.277983 17.681843,3.661931 17.193266,3.963717 L 14.871345,5.397927 L 16.927058,7.18141 C16.976641,7.224426 19.03857,9.013303 19.745246,9.626396 C19.822808,9.693687 19.884044,9.746814 19.924502,9.781914 C19.955968,9.809214 19.974866,9.825608 19.979098,9.829281 L 21.25637,10.937408 L 22.567883,9.858446 C22.616072,9.818802 22.926623,9.563316 23.44064,9.140442 C24.795773,8.025593 27.565071,5.747333 30.669303,3.193527 C36.877766,-1.914085 44.425964,-8.123876 44.680052,-8.33291 L 67.516167,-27.119847 L 42.357475,-11.579769 ZM42.357474,-5.793312C41.868897,-5.491526 17.681843,9.448396 17.193265,9.750182 L 14.871345,11.184392 L 16.927058,12.967875 C16.958501,12.995153 17.799192,13.724515 18.590337,14.410892 C19.290196,15.018072 19.951284,15.591614 19.979098,15.615745 L 21.256371,16.723873 L 22.567883,15.644911 C22.997204,15.291715 44.250731,-2.193258 44.680052,-2.546453 L 67.516166,-21.333397 L 42.357474,-5.793312 ZM42.357474,-0.252525C42.003505,-0.033885 29.21055,7.868101 22.002445,12.320421 C19.261335,14.013557 17.327874,15.207823 17.193265,15.290968 L 14.871345,16.725178 L 16.927058,18.508661 C16.947617,18.526497 17.314141,18.844484 17.786573,19.254354 C18.578592,19.941488 19.66827,20.886865 19.924502,21.109164 C19.955969,21.136464 19.974866,21.152859 19.979098,21.156531 L 21.256371,22.264659 L 22.567883,21.185697 C22.997204,20.832501 44.250731,3.347529 44.680052,2.994333 L 67.516166,-15.792611 L 42.357474,-0.252525 ZM42.357475,5.533939C41.993535,5.758738 28.47995,14.105836 21.407008,18.474665 C18.984767,19.970839 17.317903,21.000431 17.193266,21.077417 L 14.871344,22.511627 L 16.927058,24.295111 C16.951245,24.316094 17.454277,24.752512 18.04526,25.265233 C18.20778,25.406232 18.376952,25.553001 18.544645,25.698487 C18.666604,25.804296 18.787781,25.909426 18.90505,26.011165 C19.09561,26.17649 19.275849,26.332861 19.432347,26.468635 C19.504577,26.531299 19.57175,26.589577 19.632546,26.642322 C19.835201,26.818139 19.967005,26.93249 19.979098,26.942981 L 21.25637,28.051109 L 22.567883,26.972147 C22.690546,26.871234 24.513144,25.37181 27.064286,23.273024 C33.442141,18.026058 44.373394,9.03308 44.680051,8.780798 L 67.516168,-10.006133 L 42.357475,5.533939 ZM42.357474,11.169205C41.868897,11.47099 17.681843,26.410912 17.193265,26.712698 L 14.871345,28.146908 L 16.927058,29.930391 C16.933105,29.935637 16.969079,29.966847 17.028874,30.018723 C17.082689,30.065412 17.155798,30.12884 17.243749,30.205144 C17.693278,30.595143 18.530524,31.321516 19.160988,31.86849 C19.613276,32.260884 19.959145,32.56095 19.979098,32.578261 L 21.256371,33.686389 L 22.567883,32.607427 C22.624834,32.560574 23.048225,32.212257 23.740837,31.642455 C28.269455,27.916826 44.307682,14.722406 44.680052,14.416063 L 67.516166,-4.37088 L 42.357474,11.169205 ZM42.335166,16.969449C42.226594,17.036512 41.825539,17.284236 41.19903,17.67122 C37.098242,20.204202 23.338304,28.703468 18.7154,31.558953 C17.816502,32.114186 17.263063,32.456035 17.193266,32.499148 L 14.871344,33.933357 L 16.927058,35.716841 C16.986315,35.768251 19.919841,38.313302 19.979098,38.364712 L 21.25637,39.472839 L 22.567883,38.393878 C22.71245,38.274944 25.218279,36.213436 28.495133,33.517618 C32.864271,29.923193 38.604119,25.201106 41.945225,22.452429 C43.539843,21.14056 44.588054,20.278213 44.680051,20.202528 L 67.516168,1.415597 L 42.335166,16.969449 ZM42.357474,22.58338C41.868897,22.885166 17.681843,37.825087 17.193265,38.126873 L 14.871345,39.561083 L 16.927058,41.344566 C16.937337,41.353484 17.034108,41.43744 17.187363,41.5704 C17.358648,41.719002 17.600489,41.928817 17.870994,42.1635 C18.141499,42.398183 17.352736,41.713873 17.913937,42.200757 C18.475139,42.687641 19.147819,43.271241 19.569673,43.63723 C19.807642,43.843686 19.965796,43.980896 19.979098,43.992437 L 21.256371,45.100565 L 22.567883,44.021602 C22.624834,43.97475 23.048225,43.626432 23.740837,43.05663 C24.326893,42.57449 25.105706,41.933772 26.018377,41.182931 C28.839359,38.862149 32.939188,35.489279 36.578632,32.49516 C40.86033,28.972668 44.504819,25.9744 44.680052,25.830238 L 67.516166,7.043295 L 42.357474,22.58338 ZM42.357475,28.369844C42.232838,28.44683 40.565974,29.476422 38.143733,30.972597 C31.070791,35.341426 17.557207,43.688524 17.193266,43.913323 L 14.871344,45.347532 L 16.927058,47.131016 C16.953663,47.154098 17.559671,47.679855 18.224802,48.256905 C19.041099,48.965103 19.946447,49.750559 19.979098,49.778887 L 21.25637,50.887014 L 22.567883,49.808053 C22.97968,49.469273 42.550442,33.368701 44.526236,31.743245 C44.610312,31.674077 44.662528,31.631119 44.680051,31.616703 L 67.516168,12.829772 L 42.357475,28.369844 ZM42.335166,34.01889C41.377751,34.610268 17.676857,49.249897 17.193265,49.548603 L 14.871345,50.982813 L 16.927058,52.766296 C16.986315,52.817706 19.919841,55.362757 19.979098,55.414167 L 21.256371,56.522295 L 22.567883,55.443332 C22.594168,55.421708 22.698511,55.335866 22.871355,55.193671 C22.900162,55.169971 22.930872,55.144707 22.96344,55.117913 C25.927176,52.67969 44.281397,37.579936 44.680052,37.251968 L 67.516166,18.465025 L 42.335166,34.01889 ZM42.357475,39.791574C42.128143,39.933229 36.677447,43.300025 30.907076,46.86428 C30.405304,47.174215 29.901116,47.485643 29.397733,47.796574 C23.734675,51.294542 18.173594,54.729522 17.3034,55.267025 C17.245387,55.302859 17.208223,55.325815 17.193266,55.335053 L 14.871344,56.769263 L 16.927058,58.552746 C16.958501,58.580025 17.799192,59.309387 18.590337,59.995764 C19.290196,60.602944 19.951284,61.176486 19.979098,61.200617 L 21.25637,62.308745 L 22.567883,61.229783 C22.594168,61.208159 22.698511,61.122317 22.871354,60.980122 C23.505113,60.458738 25.059817,59.179706 27.064286,57.530659 C33.442141,52.283694 44.373394,43.290716 44.680051,43.038434 L 67.516168,24.251503 L 42.357475,39.791574 ZM42.357475,45.33236C42.342519,45.341599 42.305143,45.364216 42.247341,45.400388 C40.195769,46.684262 16.236792,62.582043 16.236792,62.582043 L 16.236792,63.494675 L 16.927058,64.093532 C16.938547,64.1035 17.058075,64.207199 17.243749,64.368286 C17.732367,64.792198 18.679064,65.613527 19.320375,66.169911 C19.448637,66.281188 19.564683,66.381867 19.662407,66.46665 C19.848082,66.627736 19.96761,66.731436 19.979098,66.741403 L 21.25637,67.849531 L 22.567883,66.770569 C22.913967,66.48585 36.792318,55.06834 42.385608,50.466824 C43.730829,49.36013 44.596816,48.647696 44.680051,48.57922 L 67.516168,29.792289 L 42.357475,45.33236 ZM42.335166,51.132591C41.812042,51.455715 34.498991,55.972859 27.893224,60.053127 C25.02657,61.823809 22.293114,63.512217 20.305568,64.739889 C18.490851,65.860808 17.297961,66.597636 17.193265,66.662304 L 14.871345,68.096514 L 16.927058,69.879997 C16.986315,69.931407 19.919841,72.476458 19.979098,72.527868 L 21.256371,73.635996 L 22.567883,72.557033 C22.997204,72.203837 44.250731,54.718865 44.680052,54.365669 L 67.516166,35.578726 L 42.335166,51.132591 ZM42.357474,56.754091C42.083273,56.923461 34.344693,61.703447 27.520118,65.918867 C24.169872,67.988256 21.039894,69.921589 19.121389,71.106616 C18.979278,71.194396 18.843813,71.278069 18.715399,71.357389 C18.26595,71.635005 17.902866,71.859276 17.64342,72.019532 C17.383973,72.179788 17.228164,72.276028 17.193265,72.297584 L 14.871345,73.731794 L 16.927058,75.515277 C16.951849,75.536785 17.479727,75.994759 18.089742,76.523991 C18.937811,77.259754 19.944633,78.133246 19.979098,78.163148 L 21.256371,79.271276 L 22.567883,78.192313 C22.997204,77.839117 44.250731,60.354145 44.680052,60.000949 L 67.516166,41.214006 L 42.357474,56.754091 ZM42.357474,62.536764C42.232837,62.61375 40.565973,63.643343 38.143733,65.139519 C33.880589,67.772788 27.277592,71.851344 22.624473,74.725495 C20.403666,76.097249 18.62702,77.194651 17.760906,77.729635 C17.430957,77.933439 17.233149,78.055621 17.193265,78.080257 L 14.871345,79.514467 L 16.927058,81.29795 C16.986315,81.34936 19.919841,83.89441 19.979098,83.94582 L 21.256371,85.053948 L 22.567883,83.974986 C22.607311,83.94255 22.822369,83.765624 23.1808,83.470748 C26.725282,80.554754 44.290159,66.104381 44.680052,65.783622 L 67.516166,46.996679 L 42.357474,62.536764 ZM-60.847358,-11.35203C-61.016867,-11.490259 -68.569455,-17.649107 -70.245715,-19.016033 C-70.436199,-19.171366 -70.550801,-19.264819 -70.570063,-19.280527 L -71.843113,-20.31865 L -73.110947,-19.274614 C-73.284611,-19.131605 -81.88187,-12.051934 -82.055535,-11.908925 L -82.786833,-11.306715 L -82.786833,-10.359553 C-82.786833,-10.14614 -82.786833,0.418896 -82.786833,0.63231 L -82.786834,0.637118 C-82.786885,0.705384 -82.787792,1.922445 -82.788962,3.491177 C-82.791163,6.444086 -82.794293,10.643056 -82.794389,10.771557 L -82.794389,11.727222 L -82.055001,12.328766 C-81.952328,12.412298 -76.869489,16.54755 -76.766816,16.631082 L -73.503053,19.286387 L -73.503053,15.07964 C-73.503053,14.994275 -73.503053,10.768252 -73.503053,10.682886 L -73.503053,9.724707 L -74.248723,9.123802 C-74.288765,9.091534 -76.271072,7.494075 -76.311115,7.461806 L -75.566675,9.016871 C-75.566675,8.90503 -75.566675,3.368361 -75.566675,3.25652 L -76.271658,4.778931 C-76.130864,4.660031 -72.78452,1.834047 -69.241918,-1.157676 C-66.007368,-3.88925 -62.609208,-6.758993 -61.337982,-7.832542 C-61.035309,-8.088149 -60.853211,-8.241931 -60.822603,-8.267778 L -58.976737,-9.82661 L -60.847358,-11.35203 ZM1.894303,-126.103474C1.643113,-125.895 -1.094605,-123.62284 -5.30394,-120.129315 C-7.829541,-118.0332 -10.884925,-115.497394 -14.250871,-112.703838 C-30.800105,-98.968852 -54.856748,-79.003116 -60.365674,-74.431 C-61.019276,-73.888545 -61.411792,-73.562778 -61.499708,-73.489812 L -63.380465,-71.940685 C-63.380465,-71.940685 -62.776125,-71.458554 -61.50092,-70.381602 C-61.496524,-70.370669 -60.876234,-69.873356 -60.031614,-69.186169 C-59.288347,-68.581445 -58.341108,-67.810768 -57.37687,-67.026261 C-55.141592,-65.207632 -52.814969,-63.314684 -52.72631,-63.242551 L -53.05158,-66.004903 C-53.189602,-65.824638 -60.022389,-56.900625 -60.160411,-56.72036 L -72.773272,-40.247239 L -57.245461,-54.00723 C-57.076346,-54.157091 -48.871739,-61.427616 -48.374645,-61.868116 C-48.364289,-61.877293 -48.357278,-61.883506 -48.353755,-61.886628 L -48.368926,-61.873361 C-48.108862,-62.097127 -35.749259,-72.731666 -34.501478,-73.805291 C-34.448381,-73.850977 -34.415405,-73.87935 -34.404338,-73.888872 L -32.49714,-75.529878 L -34.519968,-77.0199 C-34.617141,-77.091478 -39.427688,-80.634942 -39.524861,-80.70652 L -39.260435,-77.721876 C-38.408541,-78.604425 3.764503,-122.295056 4.616397,-123.177605 L 29.781982,-149.248767 L 1.894303,-126.103474 ZM-60.854915,19.462467C-61.043687,19.30853 -70.388849,11.687892 -70.577621,11.533956 L -71.850671,10.49583 L -73.118506,11.539867 C-73.132683,11.551542 -73.202994,11.609441 -73.320273,11.706019 C-73.774733,12.080257 -74.934463,13.035272 -76.266212,14.13194 C-77.769798,15.370114 -79.492658,16.788854 -80.667336,17.756178 C-80.868709,17.922005 -81.053972,18.074565 -81.219259,18.210676 C-81.715121,18.619008 -82.031196,18.87929 -82.063094,18.905557 L -82.794392,19.507766 L -82.794392,20.454928 C-82.794392,20.668342 -82.794392,31.233385 -82.794392,31.446798 L -82.794393,31.451607 C-82.794402,31.463654 -82.794438,31.511476 -82.794497,31.590694 C-82.795402,32.805361 -82.80181,41.401326 -82.801948,41.586045 L -82.734757,42.812992 C-82.734757,42.812992 -76.865523,47.371415 -76.774375,47.445571 L -73.510612,50.100875 L -73.510612,45.894129 C-73.510612,45.808763 -73.510612,41.58274 -73.510612,41.497375 L -73.510612,40.539195 L -74.256282,39.938291 C-74.275486,39.922815 -74.741427,39.547332 -75.225602,39.157156 C-75.65827,38.808487 -76.105498,38.448085 -76.261508,38.322363 C-76.294938,38.295423 -76.314997,38.279258 -76.318674,38.276295 L -75.574234,39.831359 C-75.574234,39.719519 -75.574234,34.18285 -75.574234,34.071009 L -76.279218,35.59342 C-76.266975,35.583081 -76.230493,35.552273 -76.171752,35.502666 C-74.791329,34.3369 -61.117872,22.789688 -60.830162,22.546718 L -58.984297,20.987887 L -60.854915,19.462467 ZM-60.115966,52.101418C-60.115966,52.101418 -60.09085,51.63896 -60.854916,50.549075 C-60.869054,50.528908 -60.98878,50.439914 -61.179264,50.284581 C-62.855525,48.917655 -70.408113,42.758807 -70.577623,42.620578 L -71.850672,41.582455 L -73.118506,42.626491 C-73.292171,42.7695 -81.889429,49.849171 -82.063094,49.99218 L -82.794392,50.59439 L -82.794392,51.541552 C-82.794392,51.754966 -82.794392,62.320009 -82.794392,62.533422 L -82.794393,62.53823 C-82.794398,62.544254 -82.794409,62.559221 -82.794426,62.582585 C-82.794513,62.699403 -82.794757,63.026129 -82.795106,63.494314 C-82.795246,63.681588 -82.795402,63.891496 -82.795572,64.119657 C-82.796649,65.564673 -82.798272,67.741832 -82.799611,69.538276 C-82.800563,70.814698 -82.801371,71.898916 -82.801738,72.391743 C-82.801752,72.409996 -82.801765,72.427438 -82.801777,72.444048 C-82.801877,72.576928 -82.790828,73.24532 -82.79084,73.261383 C-82.79084,73.261383 -73.489281,80.6255 -73.489281,80.6255 L -73.510612,76.982049 C-73.510612,76.982049 -73.510612,76.981609 -73.510612,76.980738 C-73.510612,76.895372 -73.510612,72.66935 -73.510612,72.583984 L -73.510612,71.625804 L -74.25811,71.023427 C-74.301793,70.988225 -74.923158,70.487493 -75.472313,70.044952 C-75.909602,69.692558 -76.301105,69.377063 -76.318674,69.362904 L -75.574234,70.917969 C-75.574234,70.901991 -75.574234,70.775304 -75.574234,70.569537 C-75.574234,70.437259 -75.574234,70.272299 -75.574234,70.083063 C-75.574234,68.506096 -75.574234,65.243225 -75.574234,65.157633 L -76.279217,66.680043 C-76.120059,66.545634 -71.864583,62.951888 -67.859902,59.569937 C-64.3173,56.578212 -60.970955,53.752227 -60.830162,53.633326 L -60.115966,53.030188 L -60.115966,52.101418 Z" transform="matrix(0.987834739,0,0,0.987834739,148.698738795,162.286757147)" fill="#000000"/>
		<path d="M-19.938736,57.773779C-19.938736,58.137498 -19.938736,76.143454 -19.938736,76.507174 L -19.938736,77.427864 L -19.244151,78.027982 C-19.112127,78.142051 -12.902999,83.506713 -12.150862,84.156556 C-12.110425,84.191494 -12.085761,84.212803 -12.078663,84.218936 L -8.768975,87.078493 L -8.768975,82.699973 C-8.768975,82.216053 -8.768975,58.259545 -8.768975,57.775625 L -10.766959,59.768193 C-10.635707,59.768193 -4.138066,59.768193 -4.006814,59.768193 L -6.004799,57.774696 C-6.004801,57.792592 -6.004807,57.845918 -6.004817,57.931783 C-6.004827,58.017647 -6.004752,57.365032 -6.004825,58.002237 C-6.004899,58.639441 -6.005115,60.519421 -6.005394,62.936054 C-6.006028,68.445976 -6.006984,76.745634 -6.007298,79.46582 C-6.007358,79.990768 -6.007395,80.307924 -6.007401,80.357138 L -5.300863,78.838665 C-5.34222,78.873666 -6.284232,79.670926 -7.318148,80.545968 C-8.587045,81.619882 -9.994367,82.81095 -10.045123,82.853907 L -11.834419,84.368255 L -10.055326,85.900904 C-10.013199,85.937195 -9.679158,86.224964 -9.136608,86.692359 C-5.881308,89.496726 4.880332,98.767636 5.133097,98.985387 L 5.139366,98.990788 C5.216842,99.057525 7.978599,101.436479 9.58995,102.824483 C10.23449,103.379685 10.694966,103.776335 10.725956,103.80303 L 12.004957,104.90475 L 13.309863,103.828432 C13.566884,103.616435 25.145784,94.065875 27.482333,92.138632 C27.718613,91.943742 27.860381,91.826808 27.886372,91.80537 L 27.904095,91.790759 C28.198261,91.548271 33.15154,87.465162 39.721247,82.049592 C39.926551,81.880355 40.133433,81.709818 40.3418,81.538055 C43.050579,79.305143 46.010438,76.865259 49.017375,74.386567 C55.03125,69.429184 61.233435,64.316571 65.991904,60.394049 C68.920193,57.980189 71.301749,56.017015 72.756236,54.818045 C73.210763,54.443368 73.574756,54.143319 73.836609,53.927468 C74.098461,53.711617 74.258172,53.579963 74.304136,53.542074 L 100.489911,31.956501 L 71.948375,50.315304 C70.939684,50.964125 21.004425,83.084036 19.995734,83.732857 L 22.376653,83.917501 C22.365188,83.907481 22.296979,83.847864 22.183606,83.748774 C21.866162,83.471321 21.194634,82.884391 20.423236,82.210172 C20.257936,82.065697 20.088051,81.917213 19.916081,81.766908 C19.887419,81.741857 19.858699,81.716756 19.829934,81.691614 C19.197084,81.138489 18.541815,80.56577 17.987435,80.08123 C17.206262,79.398468 16.625409,78.89079 16.589869,78.859727 L 17.271975,80.322968 C17.271993,80.212778 17.272047,79.884436 17.272133,79.355749 C17.272973,74.201049 17.276918,50.001092 17.281277,23.261767 C17.284406,4.064303 17.287749,-16.442079 17.290309,-32.149095 C17.292778,-47.295146 17.29452,-57.978521 17.294641,-58.7223 L 17.294641,-59.704431 L 16.56328,-60.310262 C16.294947,-60.532539 8.58918,-66.915703 1.945903,-72.41874 C1.352753,-72.910083 0.768074,-73.394409 0.197914,-73.866707 C-4.021266,-77.361715 -7.44532,-80.198071 -7.622611,-80.344932 L -7.457564,-77.431083 C-6.841996,-78.065037 15.100803,-100.663264 27.90336,-113.848231 C33.024383,-119.122218 36.682967,-122.890083 36.929194,-123.143665 L 62.102333,-149.068722 L 34.22042,-126.081443 C33.251625,-125.28272 -14.708586,-85.741863 -15.67738,-84.943139 L -15.709375,-84.916762 C-15.788983,-84.851134 -16.141533,-84.560497 -16.687416,-84.110478 C-17.623216,-83.339016 -19.12718,-82.099166 -20.798252,-80.721556 C-24.906302,-77.33493 -30.024249,-73.115759 -30.193706,-72.976061 L -30.19945,-72.971326 L -30.208187,-72.964096 C-30.368658,-72.831308 -33.150154,-70.529661 -36.787495,-67.519815 C-37.228385,-67.154985 -37.681849,-66.77975 -38.144744,-66.396711 C-45.203894,-60.555368 -54.456293,-52.899144 -54.752921,-52.653688 L -54.759017,-52.648644 L -54.763566,-52.644892 C-54.794254,-52.61958 -54.946455,-52.494042 -55.20033,-52.284642 C-55.961955,-51.656443 -57.638646,-50.273483 -59.694755,-48.577574 C-65.349055,-43.913824 -73.872701,-36.883395 -74.125878,-36.674571 L -74.134065,-36.667818 C-74.22194,-36.595337 -76.701956,-34.54976 -78.889057,-32.745786 C-79.485539,-32.253793 -80.060234,-31.779771 -80.558674,-31.368645 C-81.489095,-30.601211 -82.153811,-30.052937 -82.198548,-30.016038 L -87.7875,-25.406135 L -80.623879,-26.494482 C-80.472719,-26.517447 -76.131831,-27.176945 -72.389476,-27.745509 C-72.055337,-27.796274 -71.725969,-27.846313 -71.404782,-27.89511 C-69.027993,-28.256209 -67.099121,-28.549256 -66.999248,-28.56443 L -68.566709,-28.99825 C-68.554505,-28.988184 -68.469816,-28.918327 -68.330394,-28.803321 C-67.540337,-28.151626 -64.992734,-26.050181 -63.917669,-25.163391 C-63.712142,-24.993858 -63.560434,-24.868718 -63.485114,-24.806589 C-63.456145,-24.782693 -63.438476,-24.768119 -63.433391,-24.763924 L -64.159213,-26.27372 C-64.159213,-25.428957 -64.159213,-7.859583 -64.159213,12.781657 C-64.159213,28.778618 -64.159213,46.62062 -64.159213,59.952523 C-64.159213,71.564181 -64.159213,79.754547 -64.159213,80.324762 L -63.460482,78.837765 C-63.518154,78.887085 -65.345602,80.449898 -66.703517,81.611171 C-67.491984,82.285459 -68.122149,82.824369 -68.155636,82.853007 L -69.927573,84.368347 L -68.156612,85.894548 C-67.889127,86.125065 -59.016183,93.771704 -52.953185,98.996753 C-46.890187,104.221801 -55.616357,96.70165 -52.675391,99.236153 C-49.734425,101.770656 -47.517062,103.681564 -47.385377,103.795049 L -46.069911,104.928708 L -44.761336,103.794704 C-44.72452,103.762799 -44.268591,103.367693 -43.590276,102.779869 C-41.37838,100.863051 -36.801793,96.897003 -36.68174,96.792965 L -39.98913,95.281689 C-39.98913,95.427789 -39.98913,102.660479 -39.98913,102.80658 L -39.616544,101.646273 C-39.621091,101.652632 -39.657145,101.703059 -39.715704,101.784961 C-39.966673,102.135971 -40.631,103.065114 -41.000071,103.581305 C-41.147699,103.787782 -41.248087,103.928185 -41.255882,103.939087 L -42.088073,105.103009 L -41.255878,106.266928 C-41.251981,106.272379 -41.224935,106.310205 -41.18041,106.372478 C-40.861317,106.818767 -39.644472,108.520663 -39.616541,108.559728 L -39.98913,107.399121 C-39.98913,107.436666 -39.98913,108.013107 -39.98913,108.809506 C-39.98913,110.704387 -39.98913,113.844475 -39.98913,113.933805 L -39.559331,112.697016 C-39.621741,112.776001 -42.711384,116.686155 -42.773795,116.76514 L -43.722778,117.966143 L -42.812249,119.197268 C-42.784615,119.234632 -42.305622,119.882278 -41.679247,120.7292 C-40.445478,122.39738 -38.639908,124.838691 -38.585477,124.912287 L -37.002361,126.963891 C-37.002361,126.963891 -36.893049,126.82676 -35.366959,124.912287 C-35.367749,124.919778 -35.185513,124.666955 -34.928372,124.319275 C-34.887771,124.264378 -34.844886,124.206393 -34.799946,124.145629 C-33.661454,122.606274 -31.203829,119.283319 -31.140186,119.197268 L -30.229658,117.966143 L -31.178641,116.76514 C-31.188193,116.75305 -31.268667,116.651205 -31.398352,116.487081 C-31.666366,116.14789 -32.144565,115.542697 -32.641309,114.914033 C-33.474558,113.8595 -34.359989,112.738926 -34.393105,112.697016 L -33.963306,113.933805 C-33.963306,113.806931 -33.963306,107.525996 -33.963306,107.399121 L -34.335895,108.559728 C-34.33492,108.558365 -34.332499,108.554979 -34.32872,108.549693 C-34.209043,108.382311 -32.727412,106.310081 -32.696557,106.266928 L -31.864363,105.103009 L -32.696554,103.939087 C-32.717665,103.909561 -33.417948,102.930129 -33.896461,102.26087 C-33.933269,102.209389 -33.968766,102.159743 -34.00254,102.112506 C-34.191675,101.847977 -34.326797,101.658992 -34.335891,101.646273 L -33.963306,102.806056 C-33.963306,102.635083 -33.963306,94.594171 -33.963306,93.620142 C-33.963306,93.567775 -33.963306,93.535835 -33.963306,93.526643 L -34.652281,95.034246 C-34.622155,95.008139 -34.040339,94.50394 -33.323415,93.882657 C-32.897135,93.513245 -32.423089,93.10244 -31.988849,92.726129 C-31.87042,92.623499 -31.754951,92.523434 -31.64422,92.427475 C-31.145929,91.995659 -30.743566,91.646973 -30.599008,91.5217 C-30.566884,91.493861 -30.547492,91.477056 -30.542606,91.472822 L -28.79376,89.95728 L -30.541447,88.448839 C-30.627193,88.374831 -34.905041,85.310879 -34.905041,85.310879 L -33.587383,85.806293 C-33.600165,85.795095 -33.998851,85.445793 -34.30303,85.179292 C-34.487532,85.017643 -34.637264,84.886459 -34.645017,84.879666 L -33.963306,86.375172 C-33.963306,85.819916 -33.963306,58.331976 -33.963306,57.77672 L -35.957934,59.768193 C-35.800904,59.768193 -32.224109,59.768193 -28.298357,59.768193 C-23.48039,59.768193 -18.136826,59.768193 -17.944108,59.768193 L -19.938736,57.773779 ZM-17.944108,41.504262C-18.293856,41.504262 -35.608186,41.504262 -35.957934,41.504262 L -33.963306,43.501793 C-33.963306,43.341036 -33.963306,35.382758 -33.963306,35.222001 L -35.957934,37.219532 C-35.947228,37.219532 -35.920623,37.219532 -35.879095,37.219532 C-34.564022,37.219532 -18.28315,37.219532 -17.944108,37.219532 L -19.938736,35.222001 C-19.938736,35.336827 -19.938736,39.429981 -19.938736,41.818137 C-19.938736,42.7734 -19.938736,43.455863 -19.938736,43.501793 L -17.944108,41.504262 ZM-17.944108,31.152142C-18.176084,31.152142 -25.871133,31.152142 -31.12926,31.152142 C-33.798771,31.152142 -35.840162,31.152142 -35.957934,31.152142 L -33.963306,33.150951 C-33.963306,33.107446 -33.963306,31.879631 -33.963306,30.796834 C-33.963306,29.950283 -33.963306,29.192373 -33.963306,29.15836 L -35.957934,31.15717 C-35.800904,31.15717 -32.224109,31.15717 -28.298357,31.15717 C-23.48039,31.15717 -18.136826,31.15717 -17.944108,31.15717 L -19.938736,29.15836 C-19.938736,29.168643 -19.938736,29.245091 -19.938736,29.37015 C-19.938736,30.18784 -19.938736,33.083716 -19.938736,33.150951 L -17.944108,31.152142 ZM-17.944108,24.991508C-17.990503,24.991508 -18.335421,24.991508 -18.899662,24.991508 C-20.071547,24.991508 -22.189506,24.991508 -24.543984,24.991508 C-29.60175,24.991508 -35.75094,24.991508 -35.957934,24.991508 L -33.963306,26.991508 C-33.963306,26.991508 -33.963306,26.991108 -33.963306,26.990317 C-33.963306,26.912799 -33.963306,23.075259 -33.963306,22.99774 L -35.957934,24.99655 C-35.800904,24.99655 -32.224109,24.99655 -28.298357,24.99655 C-23.48039,24.99655 -18.136826,24.99655 -17.944108,24.99655 L -19.938736,22.99774 C-19.938736,23.059438 -19.938736,25.503058 -19.938736,26.536969 C-19.938736,26.802075 -19.938736,26.974497 -19.938736,26.990317 L -17.944108,24.991508 ZM-17.944108,18.929145C-18.104706,18.929145 -21.842281,18.929145 -25.871854,18.929145 C-30.617795,18.929145 -35.768784,18.929145 -35.957934,18.929145 L -33.963306,20.921547 C-33.963306,20.72971 -33.963306,16.929784 -33.963306,12.31988 C-33.963306,5.526337 -33.963306,-3.026275 -33.963306,-4.382699 C-33.963306,-4.479586 -33.963306,-4.539758 -33.963306,-4.559952 L -33.963306,-4.574759 C-33.963306,-5.020245 -33.963306,-25.971562 -33.963306,-28.50948 C-33.963306,-28.645927 -33.963306,-28.72915 -33.963306,-28.753101 L -33.963306,-28.768565 C-33.963306,-29.081202 -33.963306,-38.214001 -33.963306,-45.906773 C-33.963306,-51.44017 -33.963306,-56.228513 -33.963306,-56.453392 L -34.68383,-54.924453 C-34.439687,-55.12666 -22.353423,-65.136904 -22.109281,-65.33911 L -23.381258,-64.882515 C-23.381258,-64.882515 -25.150524,-65.801643 -24.653609,-65.339424 C-24.585007,-65.275613 -19.319938,-60.932127 -19.214331,-60.844862 L -19.938736,-62.385272 C-19.938736,-62.385272 -19.938736,-62.37694 -19.938736,-62.360444 C-19.938736,-60.743811 -19.938736,19.287684 -19.938736,20.904317 L -17.944108,18.929145 ZM-12.040928,-54.917365C-11.999333,-54.882994 -11.319522,-54.321255 -10.405265,-53.56579 C-10.021867,-53.248982 -9.59724,-52.898106 -9.16116,-52.537766 C-8.087732,-51.650776 -6.944911,-50.706444 -6.176814,-50.071753 C-5.648747,-49.635403 -5.297796,-49.345407 -5.268277,-49.321014 L -5.992287,-50.839933 C-5.992347,-50.313997 -5.993517,-40.15654 -5.994959,-27.640342 C-5.995193,-25.610688 -5.995434,-23.519008 -5.995679,-21.396314 C-5.997064,-9.367716 -5.998565,3.656757 -5.99953,12.033816 C-6.000495,20.410876 -5.999065,7.996764 -5.999613,12.760764 C-6.000162,17.524765 -6.000519,20.623232 -6.000552,20.907521 L -4.002571,18.929145 C-4.133906,18.929145 -10.635623,18.929145 -10.766958,18.929145 L -8.768975,20.906083 C-8.768975,19.404408 -8.768975,-54.936047 -8.768975,-56.437721 L -12.040928,-54.917365 ZM-10.766958,24.99655C-10.714694,24.99655 -9.653578,24.99655 -8.386575,24.99655 C-6.827185,24.99655 -4.955918,24.99655 -4.269787,24.99655 C-4.112549,24.99655 -4.017551,24.99655 -4.00281,24.99655 L -6.000793,22.996618 C-6.000793,23.003574 -6.000808,23.131653 -6.000832,23.338032 C-6.000863,23.603377 -6.000908,23.998159 -6.000958,24.431367 C-6.000979,24.614277 -6.001001,24.804038 -6.001023,24.993798 C-6.001051,25.243483 -6.00108,25.493168 -6.001107,25.727248 C-6.001116,25.802153 -6.001124,25.875461 -6.001132,25.946659 C-6.001143,26.035656 -6.001153,26.121358 -6.001162,26.202765 C-6.001175,26.316736 -6.001187,26.422288 -6.001198,26.516683 C-6.001231,26.799868 -6.001252,26.982631 -6.001253,26.990979 L -4.00327,24.991508 C-4.03007,24.991508 -4.322165,24.991508 -4.771271,24.991508 C-6.522784,24.991508 -10.662437,24.991508 -10.766958,24.991508 L -8.768975,26.991508 C-8.768975,26.991508 -8.768975,26.991108 -8.768975,26.990317 C-8.768975,26.920709 -8.768975,23.819279 -8.768975,23.130932 C-8.768975,23.052711 -8.768975,23.00565 -8.768975,22.99774 L -10.766958,24.99655 ZM-10.766958,31.15717C-10.717379,31.15717 -9.759863,31.15717 -8.579995,31.15717 C-8.356777,31.15717 -8.1256,31.15717 -7.891107,31.15717 C-6.082162,31.15717 -4.075877,31.15717 -4.003519,31.15717 L -6.001502,29.157238 C-6.001503,29.1632 -6.001514,29.258151 -6.001532,29.415123 C-6.001565,29.697674 -6.00162,30.181175 -6.001681,30.708362 C-6.001698,30.854802 -6.001715,31.004614 -6.001732,31.154425 C-6.001739,31.21435 -6.001746,31.274274 -6.001753,31.333983 C-6.001785,31.612625 -6.001817,31.886568 -6.001845,32.133889 C-6.001851,32.186886 -6.001857,32.238661 -6.001863,32.288997 C-6.00192,32.783974 -6.001961,33.139886 -6.001962,33.151613 L -4.003979,31.152142 C-4.135286,31.152142 -10.635651,31.152142 -10.766958,31.152142 L -8.768975,33.150951 C-8.768975,33.073433 -8.768975,29.235879 -8.768975,29.15836 L -10.766958,31.15717 ZM-10.766958,37.219532C-10.701307,37.219532 -9.043447,37.219532 -7.385588,37.219532 C-5.727728,37.219532 -4.069868,37.219532 -4.004217,37.219532 L -6.002201,35.221771 C-6.002206,35.269342 -6.002291,35.999723 -6.002407,37.008804 C-6.002683,39.409718 -6.003142,43.388377 -6.003155,43.501563 L -4.005171,41.504262 C-4.136455,41.504262 -10.635674,41.504262 -10.766958,41.504262 L -8.768975,43.501793 C-8.768975,43.341036 -8.768975,35.382758 -8.768975,35.222001 L -10.766958,37.219532 ZM-39.98913,-54.776038C-39.98913,-54.58539 -39.98913,-50.903379 -39.98913,-46.366341 C-39.98913,-38.886359 -39.98913,-29.082377 -39.98913,-28.768065 L -39.98913,-28.753101 C-39.98913,-28.283664 -39.98913,-5.044196 -39.98913,-4.574759 L -39.98913,-4.559952 C-39.98913,-4.065214 -39.98913,20.426809 -39.98913,20.921547 L -39.98913,20.929761 C-39.98913,20.947363 -39.98913,21.339583 -39.98913,21.777674 C-39.98913,22.338023 -39.98913,22.97342 -39.98913,22.995934 L -39.98913,22.99774 C-39.98913,23.07605 -39.98913,26.991508 -39.98913,26.992153 C-39.98913,27.034175 -39.98913,29.114502 -39.98913,29.156524 L -39.98913,29.15836 C-39.98913,29.192373 -39.98913,29.950283 -39.98913,30.796834 C-39.98913,31.879631 -39.98913,33.107446 -39.98913,33.150951 L -39.98913,33.152758 C-39.98913,33.167904 -39.98913,33.460414 -39.98913,33.820852 C-39.98913,34.415086 -39.98913,35.193946 -39.98913,35.218916 L -39.98913,35.222001 C-39.98913,35.382758 -39.98913,43.341036 -39.98913,43.501793 L -39.98913,43.508513 C-39.98913,43.666671 -39.98913,48.208535 -39.98913,52.124155 C-39.98913,55.06087 -39.98913,57.645323 -39.98913,57.763942 L -39.98913,57.776191 C-39.98913,58.297007 -39.98913,84.079996 -39.98913,84.600812 L -36.672602,83.103235 C-36.680283,83.096505 -36.718377,83.063129 -36.781921,83.007457 C-36.869292,82.930908 -37.004777,82.812205 -37.175467,82.662658 C-37.377191,82.485921 -37.628086,82.266105 -37.906843,82.021876 C-38.70023,81.326765 -39.719326,80.433903 -40.472882,79.773688 C-41.063507,79.256223 -41.491007,78.881676 -41.518851,78.857281 L -40.838281,80.323137 C-40.838587,79.326855 -40.84512,58.113094 -40.852669,33.598521 C-40.863164,-0.482715 -40.875624,-40.94369 -40.876051,-42.328764 L -40.876051,-43.312173 L -41.610725,-43.913568 C-41.666084,-43.958884 -43.228437,-45.237805 -44.606259,-46.365673 C-45.683466,-47.247461 -46.647881,-48.036918 -46.691161,-48.072347 L -46.68083,-44.988142 C-46.516976,-45.123851 -39.621888,-50.83459 -37.397452,-52.676942 C-36.995446,-53.009897 -36.745986,-53.216507 -36.716374,-53.241033 L -39.98913,-54.776038 Z" transform="matrix(0.987834739,0,0,0.987834739,148.698738795,162.246718867)" fill="#000000"/>
		<path d="M7.421891,-70.095115C7.421891,-70.095115 12.93622,-65.518105 12.93622,-65.518105 C12.93622,-65.518105 12.94661,-65.528379 12.94661,-65.528379 C12.94661,-65.528379 18.215851,-61.154802 18.215851,-61.154802 C18.215851,-61.154802 20.400789,-59.259207 20.400789,-59.259207 C20.400789,-59.259207 43.376539,-78.205981 43.376539,-78.205981 C43.376539,-78.205981 23.256319,-65.608567 23.256319,-65.608567 C23.256319,-65.608567 79.920788,-120.419524 79.920788,-120.419524 C79.920788,-120.419524 13.04767,-65.628317 13.04767,-65.628317 C13.04767,-65.628317 68.423465,-120.389288 68.423465,-120.389288 C68.423465,-120.389288 7.421891,-70.095115 7.421891,-70.095115 C7.421891,-70.095115 57.122686,-120.476217 57.122686,-120.476217 C57.122686,-120.476217 1.907561,-74.672121 1.907561,-74.672121 C1.907561,-74.672121 7.421891,-70.095115 7.421891,-70.095115 L 7.421891,-70.095115 ZM1.907561,-74.672121C1.907561,-74.672121 46.320789,-120.411965 46.320789,-120.411965 C46.320789,-120.411965 -3.606768,-79.24913 -3.606768,-79.24913 C-3.606768,-79.24913 1.907561,-74.672121 1.907561,-74.672121 L 1.907561,-74.672121 ZM-62.159213,52.146846C-62.159213,52.146846 -71.883938,44.216703 -71.883938,44.216703 C-71.883938,44.216703 -80.83386,51.586785 -80.83386,51.586785 C-80.83386,51.586785 -80.83386,62.585209 -80.83386,62.585209 C-80.83386,62.585209 -80.841419,72.725677 -80.841419,72.725677 C-80.841419,72.725677 -75.55008,77.030559 -75.55008,77.030559 C-75.55008,77.030559 -75.55008,72.631183 -75.55008,72.631183 C-75.55008,72.631183 -77.613702,70.968196 -77.613702,70.968196 C-77.613702,70.968196 -77.613702,65.204425 -77.613702,65.204425 C-77.613702,65.204425 -62.159213,52.153119 -62.159213,52.153119 C-62.159213,52.153119 -62.159213,80.356547 -62.159213,80.356547 C-62.159213,80.356547 -66.857167,84.374184 -66.857167,84.374184 C-66.857167,84.374184 -46.073545,102.28536 -46.073545,102.28536 C-46.073545,102.28536 -37.98913,95.279445 -37.98913,95.279445 C-37.98913,95.279445 -37.98913,102.808823 -37.98913,102.808823 C-37.98913,102.808823 -39.629445,105.103005 -39.629445,105.103005 C-39.629445,105.103005 -37.98913,107.397173 -37.98913,107.397173 C-37.98913,107.397173 -37.98913,113.935754 -37.98913,113.935754 C-37.98913,113.935754 -41.205511,118.006304 -41.205511,118.006304 C-41.205511,118.006304 -36.976218,123.724731 -36.976218,123.724731 C-36.976218,123.724731 -32.746925,118.006304 -32.746925,118.006304 C-32.746925,118.006304 -35.963306,113.935754 -35.963306,113.935754 C-35.963306,113.935754 -35.963306,107.397173 -35.963306,107.397173 C-35.963306,107.397173 -34.322991,105.103005 -34.322991,105.103005 C-34.322991,105.103005 -35.963306,102.808823 -35.963306,102.808823 C-35.963306,102.808823 -35.963306,93.523876 -35.963306,93.523876 C-35.963306,93.523876 -31.85118,89.960328 -31.85118,89.960328 C-31.85118,89.960328 -34.905041,87.310879 -34.905041,87.310879 C-34.905041,87.310879 -35.963306,86.383699 -35.963306,86.383699 C-35.963306,86.383699 -35.963306,57.768193 -35.963306,57.768193 C-35.963306,57.768193 -17.938736,57.768193 -17.938736,57.768193 C-17.938736,57.768193 -17.938736,76.51276 -17.938736,76.51276 C-17.938736,76.51276 -10.768975,82.707405 -10.768975,82.707405 C-10.768975,82.707405 -10.768975,57.768193 -10.768975,57.768193 C-10.768975,57.768193 -4.004798,57.768193 -4.004798,57.768193 C-4.004798,57.768193 -4.007401,80.364102 -4.007401,80.364102 C-4.007401,80.364102 -8.75449,84.381739 -8.75449,84.381739 C-8.75449,84.381739 6.44299,97.474026 6.44299,97.474026 C6.44299,97.474026 12.032912,102.289137 12.032912,102.289137 C12.032912,102.289137 26.618114,90.258906 26.618114,90.258906 C26.618114,90.258906 73.045826,51.987411 73.045826,51.987411 C73.045826,51.987411 21.062204,85.424892 21.062204,85.424892 C21.062204,85.424892 15.271969,80.364102 15.271969,80.364102 C15.271969,80.364102 15.294648,-58.764087 15.294648,-58.764087 C15.294648,-58.764087 -8.905667,-78.810705 -8.905667,-78.810705 C-8.905667,-78.810705 35.50756,-124.550548 35.50756,-124.550548 C35.50756,-124.550548 -14.419997,-83.387711 -14.419997,-83.387711 C-14.419997,-83.387711 -28.925825,-71.429287 -28.925825,-71.429287 C-28.925825,-71.429287 -53.485196,-51.106767 -53.485196,-51.106767 C-53.485196,-51.106767 -72.859056,-35.126922 -72.859056,-35.126922 C-72.859056,-35.126922 -80.928348,-28.471175 -80.928348,-28.471175 C-80.928348,-28.471175 -67.295592,-30.542357 -67.295592,-30.542357 C-67.295592,-30.542357 -62.159213,-26.305505 -62.159213,-26.305505 C-62.159213,-26.305505 -62.159213,-9.760423 -62.159213,-9.760423 C-62.159213,-9.760423 -71.876379,-17.684402 -71.876379,-17.684402 C-71.876379,-17.684402 -80.8263,-10.314321 -80.8263,-10.314321 C-80.8263,-10.314321 -80.8263,0.684097 -80.8263,0.684097 C-80.8263,0.684097 -80.83386,10.824579 -80.83386,10.824579 C-80.83386,10.824579 -75.542521,15.129461 -75.542521,15.129461 C-75.542521,15.129461 -75.542521,10.730085 -75.542521,10.730085 C-75.542521,10.730085 -77.606143,9.067098 -77.606143,9.067098 C-77.606143,9.067098 -77.606143,3.303313 -77.606143,3.303313 C-77.606143,3.303313 -62.159213,-9.741603 -62.159213,-9.741603 C-62.159213,-9.741603 -62.159213,21.060236 -62.159213,21.060236 C-62.159213,21.060236 -71.883938,13.130079 -71.883938,13.130079 C-71.883938,13.130079 -80.83386,20.500161 -80.83386,20.500161 C-80.83386,20.500161 -80.83386,31.498586 -80.83386,31.498586 C-80.83386,31.498586 -80.841419,41.639068 -80.841419,41.639068 C-80.841419,41.639068 -75.55008,45.94395 -75.55008,45.94395 C-75.55008,45.94395 -75.55008,41.544574 -75.55008,41.544574 C-75.55008,41.544574 -77.613702,39.881587 -77.613702,39.881587 C-77.613702,39.881587 -77.613702,34.117801 -77.613702,34.117801 C-77.613702,34.117801 -62.159213,21.06651 -62.159213,21.06651 C-62.159213,21.06651 -62.159213,52.146846 -62.159213,52.146846 L -62.159213,52.146846 ZM-17.938736,43.504262C-17.938736,43.504262 -35.963306,43.504262 -35.963306,43.504262 C-35.963306,43.504262 -35.963306,35.219532 -35.963306,35.219532 C-35.963306,35.219532 -17.938736,35.219532 -17.938736,35.219532 C-17.938736,35.219532 -17.938736,43.504262 -17.938736,43.504262 L -17.938736,43.504262 ZM-17.938736,33.152142C-17.938736,33.152142 -35.963306,33.152142 -35.963306,33.152142 C-35.963306,33.152142 -35.963306,29.15717 -35.963306,29.15717 C-35.963306,29.15717 -17.938736,29.15717 -17.938736,29.15717 C-17.938736,29.15717 -17.938736,33.152142 -17.938736,33.152142 L -17.938736,33.152142 ZM-17.938736,26.991508C-17.938736,26.991508 -35.963306,26.991508 -35.963306,26.991508 C-35.963306,26.991508 -35.963306,22.99655 -35.963306,22.99655 C-35.963306,22.99655 -17.938736,22.99655 -17.938736,22.99655 C-17.938736,22.99655 -17.938736,26.991508 -17.938736,26.991508 L -17.938736,26.991508 ZM-17.938736,20.929145C-17.938736,20.929145 -35.963306,20.929145 -35.963306,20.929145 C-35.963306,20.929145 -35.963306,-4.56755 -35.963306,-4.56755 C-35.963306,-4.56755 -35.963306,-28.76031 -35.963306,-28.76031 C-35.963306,-28.76031 -35.963306,-56.461647 -35.963306,-56.461647 C-35.963306,-56.461647 -23.381258,-66.882515 -23.381258,-66.882515 C-23.381258,-66.882515 -17.938736,-62.385272 -17.938736,-62.385272 C-17.938736,-62.385272 -17.938736,20.929145 -17.938736,20.929145 L -17.938736,20.929145 ZM-10.768975,-56.460783C-10.768975,-56.460783 -3.992284,-50.861096 -3.992284,-50.861096 C-3.992284,-50.861096 -4.000554,20.929145 -4.000554,20.929145 C-4.000554,20.929145 -10.768975,20.929145 -10.768975,20.929145 C-10.768975,20.929145 -10.768975,-56.460783 -10.768975,-56.460783 L -10.768975,-56.460783 ZM-10.768975,22.99655C-10.768975,22.99655 -4.000793,22.99655 -4.000793,22.99655 C-4.000793,22.99655 -4.001253,26.991508 -4.001253,26.991508 C-4.001253,26.991508 -10.768975,26.991508 -10.768975,26.991508 C-10.768975,26.991508 -10.768975,22.99655 -10.768975,22.99655 L -10.768975,22.99655 ZM-10.768975,29.15717C-10.768975,29.15717 -4.001502,29.15717 -4.001502,29.15717 C-4.001502,29.15717 -4.001963,33.152142 -4.001963,33.152142 C-4.001963,33.152142 -10.768975,33.152142 -10.768975,33.152142 C-10.768975,33.152142 -10.768975,29.15717 -10.768975,29.15717 L -10.768975,29.15717 ZM-10.768975,35.219532C-10.768975,35.219532 -4.002201,35.219532 -4.002201,35.219532 C-4.002201,35.219532 -4.003155,43.504262 -4.003155,43.504262 C-4.003155,43.504262 -10.768975,43.504262 -10.768975,43.504262 C-10.768975,43.504262 -10.768975,35.219532 -10.768975,35.219532 L -10.768975,35.219532 ZM-37.98913,-54.783793C-37.98913,-54.783793 -37.98913,-28.76031 -37.98913,-28.76031 C-37.98913,-28.76031 -37.98913,-4.56755 -37.98913,-4.56755 C-37.98913,-4.56755 -37.98913,20.929145 -37.98913,20.929145 C-37.98913,20.929145 -37.98913,22.99655 -37.98913,22.99655 C-37.98913,22.99655 -37.98913,26.991508 -37.98913,26.991508 C-37.98913,26.991508 -37.98913,29.15717 -37.98913,29.15717 C-37.98913,29.15717 -37.98913,33.152142 -37.98913,33.152142 C-37.98913,33.152142 -37.98913,35.219532 -37.98913,35.219532 C-37.98913,35.219532 -37.98913,43.504262 -37.98913,43.504262 C-37.98913,43.504262 -37.98913,57.768193 -37.98913,57.768193 C-37.98913,57.768193 -37.98913,84.60881 -37.98913,84.60881 C-37.98913,84.60881 -42.838269,80.360325 -42.838269,80.360325 C-42.838269,80.360325 -42.876062,-42.364721 -42.876062,-42.364721 C-42.876062,-42.364721 -47.959527,-46.52598 -47.959527,-46.52598 C-47.959527,-46.52598 -37.98913,-54.783793 -37.98913,-54.783793 L -37.98913,-54.783793 ZM43.376539,-72.419523C43.376539,-72.419523 18.197324,-56.866768 18.197324,-56.866768 C18.197324,-56.866768 21.251184,-54.217318 21.251184,-54.217318 C21.251184,-54.217318 43.376539,-72.419523 43.376539,-72.419523 L 43.376539,-72.419523 ZM43.376539,-66.784247C43.376539,-66.784247 18.197324,-51.231488 18.197324,-51.231488 C18.197324,-51.231488 21.251184,-48.582038 21.251184,-48.582038 C21.251184,-48.582038 43.376539,-66.784247 43.376539,-66.784247 L 43.376539,-66.784247 ZM43.376539,-61.084718C43.376539,-61.084718 18.197324,-45.531962 18.197324,-45.531962 C18.197324,-45.531962 21.251184,-42.882513 21.251184,-42.882513 C21.251184,-42.882513 43.376539,-61.084718 43.376539,-61.084718 L 43.376539,-61.084718 ZM43.376539,-55.29826C43.376539,-55.29826 18.197324,-39.745505 18.197324,-39.745505 C18.197324,-39.745505 21.251184,-37.096055 21.251184,-37.096055 C21.251184,-37.096055 43.376539,-55.29826 43.376539,-55.29826 L 43.376539,-55.29826 ZM43.376539,-49.662988C43.376539,-49.662988 18.197324,-34.110232 18.197324,-34.110232 C18.197324,-34.110232 21.251184,-31.460782 21.251184,-31.460782 C21.251184,-31.460782 43.376539,-49.662988 43.376539,-49.662988 L 43.376539,-49.662988 ZM43.376539,-43.87653C43.376539,-43.87653 18.197324,-28.323775 18.197324,-28.323775 C18.197324,-28.323775 21.251184,-25.674325 21.251184,-25.674325 C21.251184,-25.674325 43.376539,-43.87653 43.376539,-43.87653 L 43.376539,-43.87653 ZM43.376539,-38.335744C43.376539,-38.335744 18.197324,-22.782989 18.197324,-22.782989 C18.197324,-22.782989 21.251184,-20.133539 21.251184,-20.133539 C21.251184,-20.133539 43.376539,-38.335744 43.376539,-38.335744 L 43.376539,-38.335744 ZM43.376539,-32.549287C43.376539,-32.549287 18.197324,-16.996531 18.197324,-16.996531 C18.197324,-16.996531 21.251184,-14.347082 21.251184,-14.347082 C21.251184,-14.347082 43.376539,-32.549287 43.376539,-32.549287 L 43.376539,-32.549287 ZM43.376539,-26.914007C43.376539,-26.914007 18.197324,-11.361251 18.197324,-11.361251 C18.197324,-11.361251 21.251184,-8.711802 21.251184,-8.711802 C21.251184,-8.711802 43.376539,-26.914007 43.376539,-26.914007 L 43.376539,-26.914007 ZM43.376539,-21.256055C43.376539,-21.256055 18.197324,-5.703299 18.197324,-5.703299 C18.197324,-5.703299 21.251184,-3.05385 21.251184,-3.05385 C21.251184,-3.05385 43.376539,-21.256055 43.376539,-21.256055 L 43.376539,-21.256055 ZM43.376539,-15.469597C43.376539,-15.469597 18.197324,0.083151 18.197324,0.083151 C18.197324,0.083151 21.251184,2.7326 21.251184,2.7326 C21.251184,2.7326 43.376539,-15.469597 43.376539,-15.469597 L 43.376539,-15.469597 ZM43.376539,-9.834325C43.376539,-9.834325 18.197324,5.718431 18.197324,5.718431 C18.197324,5.718431 21.251184,8.36788 21.251184,8.36788 C21.251184,8.36788 43.376539,-9.834325 43.376539,-9.834325 L 43.376539,-9.834325 ZM43.376539,-4.047867C43.376539,-4.047867 18.197324,11.504895 18.197324,11.504895 C18.197324,11.504895 21.251184,14.154345 21.251184,14.154345 C21.251184,14.154345 43.376539,-4.047867 43.376539,-4.047867 L 43.376539,-4.047867 ZM43.376539,1.492919C43.376539,1.492919 18.197324,17.045681 18.197324,17.045681 C18.197324,17.045681 21.251184,19.695131 21.251184,19.695131 C21.251184,19.695131 43.376539,1.492919 43.376539,1.492919 L 43.376539,1.492919 ZM43.376539,7.279383C43.376539,7.279383 18.197324,22.832132 18.197324,22.832132 C18.197324,22.832132 21.251184,25.481581 21.251184,25.481581 C21.251184,25.481581 43.376539,7.279383 43.376539,7.279383 L 43.376539,7.279383 ZM43.376539,12.914649C43.376539,12.914649 18.197324,28.467412 18.197324,28.467412 C18.197324,28.467412 21.251184,31.116861 21.251184,31.116861 C21.251184,31.116861 43.376539,12.914649 43.376539,12.914649 L 43.376539,12.914649 ZM43.376539,18.701113C43.376539,18.701113 18.197324,34.253862 18.197324,34.253862 C18.197324,34.253862 21.251184,36.903311 21.251184,36.903311 C21.251184,36.903311 43.376539,18.701113 43.376539,18.701113 L 43.376539,18.701113 ZM43.376539,24.328824C43.376539,24.328824 18.197324,39.881587 18.197324,39.881587 C18.197324,39.881587 21.251184,42.531037 21.251184,42.531037 C21.251184,42.531037 43.376539,24.328824 43.376539,24.328824 L 43.376539,24.328824 ZM43.376539,30.115289C43.376539,30.115289 18.197324,45.668037 18.197324,45.668037 C18.197324,45.668037 21.251184,48.317487 21.251184,48.317487 C21.251184,48.317487 43.376539,30.115289 43.376539,30.115289 L 43.376539,30.115289 ZM43.376539,35.750554C43.376539,35.750554 18.197324,51.303317 18.197324,51.303317 C18.197324,51.303317 21.251184,53.952767 21.251184,53.952767 C21.251184,53.952767 43.376539,35.750554 43.376539,35.750554 L 43.376539,35.750554 ZM43.376539,41.537019C43.376539,41.537019 18.197324,57.089767 18.197324,57.089767 C18.197324,57.089767 21.251184,59.739217 21.251184,59.739217 C21.251184,59.739217 43.376539,41.537019 43.376539,41.537019 L 43.376539,41.537019 ZM43.376539,47.077805C43.376539,47.077805 18.197324,62.630553 18.197324,62.630553 C18.197324,62.630553 21.251184,65.280003 21.251184,65.280003 C21.251184,65.280003 43.376539,47.077805 43.376539,47.077805 L 43.376539,47.077805 ZM43.376539,52.864255C43.376539,52.864255 18.197324,68.417018 18.197324,68.417018 C18.197324,68.417018 21.251184,71.066468 21.251184,71.066468 C21.251184,71.066468 43.376539,52.864255 43.376539,52.864255 L 43.376539,52.864255 ZM43.376539,58.499535C43.376539,58.499535 18.197324,74.052298 18.197324,74.052298 C18.197324,74.052298 21.251184,76.701748 21.251184,76.701748 C21.251184,76.701748 43.376539,58.499535 43.376539,58.499535 L 43.376539,58.499535 ZM43.376539,64.282208C43.376539,64.282208 18.197324,79.834971 18.197324,79.834971 C18.197324,79.834971 21.251184,82.48442 21.251184,82.48442 C21.251184,82.48442 43.376539,64.282208 43.376539,64.282208 L 43.376539,64.282208 ZM3.151028,-124.53165C3.151028,-124.53165 -60.280788,-71.886611 -60.280788,-71.886611 C-60.280788,-71.886611 -51.500946,-64.743302 -51.500946,-64.743302 C-51.500946,-64.743302 -58.614017,-55.453222 -58.614017,-55.453222 C-58.614017,-55.453222 -49.717008,-63.337319 -49.717008,-63.337319 C-49.717008,-63.337319 -35.744093,-75.359995 -35.744093,-75.359995 C-35.744093,-75.359995 -40.75197,-79.048814 -40.75197,-79.048814 C-40.75197,-79.048814 3.151028,-124.53165 3.151028,-124.53165 L 3.151028,-124.53165 Z" transform="matrix(0.987834739,0,0,0.987834739,148.698738789,162.286757159)" fill="url('#2415559952334938512')"/>
	</g>
</g></g></svg>